<svg xmlns="http://www.w3.org/2000/svg" width="1180" height="760" viewBox="0 0 1180 760">
  <rect width="1180" height="760" fill="#0b1215"/>

  <text x="56" y="62" font-family="Arial, sans-serif" font-size="30" font-weight="700" fill="#f2fbff">Extension-first structure</text>
  <text x="56" y="92" font-family="Arial, sans-serif" font-size="15" fill="#9fb3bc">Popup for quick capture. Dashboard page for the full self-improvement blocks experience.</text>

  <g transform="translate(56 132)">
    <text x="0" y="0" font-family="Arial, sans-serif" font-size="18" font-weight="700" fill="#f2fbff">Extension Popup</text>
    <text x="0" y="26" font-family="Arial, sans-serif" font-size="14" fill="#849aa4">Small, fast, action-oriented</text>

    <rect x="0" y="54" width="340" height="500" rx="22" fill="#111b21" stroke="#22323a"/>
    <g transform="translate(22 82)">
      <text x="0" y="0" font-family="Arial, sans-serif" font-size="22" font-weight="700" fill="#f2fbff">Blocks</text>
      <text x="0" y="28" font-family="Arial, sans-serif" font-size="14" fill="#9fb3bc">Today: 6 blocks built</text>

      <rect x="230" y="-20" width="66" height="34" rx="17" fill="#164e63"/>
      <text x="247" y="2" font-family="Arial, sans-serif" font-size="13" font-weight="700" fill="#a5f3fc">Open</text>

      <rect x="0" y="58" width="296" height="118" rx="16" fill="#17232a"/>
      <text x="18" y="86" font-family="Arial, sans-serif" font-size="15" fill="#9fb3bc">Focus Session</text>
      <text x="18" y="128" font-family="Arial, sans-serif" font-size="42" font-weight="700" fill="#f2fbff">25:00</text>
      <rect x="202" y="92" width="76" height="42" rx="21" fill="#22d3ee"/>
      <text x="224" y="119" font-family="Arial, sans-serif" font-size="15" font-weight="700" fill="#06252c">Start</text>

      <text x="0" y="215" font-family="Arial, sans-serif" font-size="14" font-weight="700" fill="#f2fbff">Quick Add</text>
      <g transform="translate(0 234)">
        <rect x="0" y="0" width="296" height="52" rx="14" fill="#17232a"/>
        <rect x="14" y="14" width="24" height="24" rx="6" fill="#22d3ee"/>
        <text x="52" y="22" font-family="Arial, sans-serif" font-size="15" fill="#f2fbff">Deep Work</text>
        <text x="52" y="40" font-family="Arial, sans-serif" font-size="12" fill="#849aa4">+1 block</text>
        <text x="260" y="33" font-family="Arial, sans-serif" font-size="25" fill="#a5f3fc">+</text>

        <rect x="0" y="64" width="296" height="52" rx="14" fill="#17232a"/>
        <rect x="14" y="78" width="24" height="24" rx="6" fill="#0e7490"/>
        <text x="52" y="86" font-family="Arial, sans-serif" font-size="15" fill="#f2fbff">Reading</text>
        <text x="52" y="104" font-family="Arial, sans-serif" font-size="12" fill="#849aa4">10 pages = 1 block</text>
        <text x="260" y="97" font-family="Arial, sans-serif" font-size="25" fill="#a5f3fc">+</text>

        <rect x="0" y="128" width="296" height="52" rx="14" fill="#17232a"/>
        <rect x="14" y="142" width="24" height="24" rx="6" fill="#164e63"/>
        <text x="52" y="150" font-family="Arial, sans-serif" font-size="15" fill="#f2fbff">Workout</text>
        <text x="52" y="168" font-family="Arial, sans-serif" font-size="12" fill="#849aa4">1 session = 2 blocks</text>
        <text x="260" y="161" font-family="Arial, sans-serif" font-size="25" fill="#a5f3fc">+</text>
      </g>

      <rect x="0" y="438" width="296" height="40" rx="14" fill="#0e7490"/>
      <text x="93" y="463" font-family="Arial, sans-serif" font-size="14" font-weight="700" fill="#e6fbff">View Dashboard</text>
    </g>
  </g>

  <g transform="translate(454 132)">
    <text x="0" y="0" font-family="Arial, sans-serif" font-size="18" font-weight="700" fill="#f2fbff">Extension Dashboard Page</text>
    <text x="0" y="26" font-family="Arial, sans-serif" font-size="14" fill="#849aa4">Full-screen page opened from the extension</text>

    <rect x="0" y="54" width="670" height="500" rx="22" fill="#111b21" stroke="#22323a"/>

    <g transform="translate(28 84)">
      <text x="0" y="0" font-family="Arial, sans-serif" font-size="24" font-weight="700" fill="#f2fbff">Self-Improvement Blocks</text>
      <text x="0" y="28" font-family="Arial, sans-serif" font-size="14" fill="#9fb3bc">326 blocks in the last 12 months</text>

      <g transform="translate(468 -10)">
        <rect x="0" y="0" width="132" height="36" rx="18" fill="#17232a"/>
        <circle cx="22" cy="18" r="7" fill="#22d3ee"/>
        <text x="42" y="23" font-family="Arial, sans-serif" font-size="13" fill="#f2fbff">Deep Work</text>
      </g>

      <g transform="translate(0 72)" font-family="Arial, sans-serif" font-size="12" fill="#849aa4">
        <text x="42" y="0">Jun</text><text x="112" y="0">Jul</text><text x="184" y="0">Aug</text><text x="256" y="0">Sep</text><text x="328" y="0">Oct</text><text x="400" y="0">Nov</text><text x="472" y="0">Dec</text><text x="544" y="0">Jan</text>
        <text x="0" y="36">Mon</text><text x="0" y="76">Wed</text><text x="0" y="116">Fri</text>
      </g>

      <g transform="translate(42 86)">
        <defs>
          <g id="w1"><rect x="0" y="0" width="10" height="10" rx="2.5" fill="#1b2730"/><rect x="0" y="14" width="10" height="10" rx="2.5" fill="#164e63"/><rect x="0" y="28" width="10" height="10" rx="2.5" fill="#0e7490"/><rect x="0" y="42" width="10" height="10" rx="2.5" fill="#22d3ee"/><rect x="0" y="56" width="10" height="10" rx="2.5" fill="#a5f3fc"/><rect x="0" y="70" width="10" height="10" rx="2.5" fill="#1b2730"/><rect x="0" y="84" width="10" height="10" rx="2.5" fill="#0e7490"/></g>
          <g id="w2"><rect x="0" y="0" width="10" height="10" rx="2.5" fill="#164e63"/><rect x="0" y="14" width="10" height="10" rx="2.5" fill="#0e7490"/><rect x="0" y="28" width="10" height="10" rx="2.5" fill="#22d3ee"/><rect x="0" y="42" width="10" height="10" rx="2.5" fill="#22d3ee"/><rect x="0" y="56" width="10" height="10" rx="2.5" fill="#1b2730"/><rect x="0" y="70" width="10" height="10" rx="2.5" fill="#164e63"/><rect x="0" y="84" width="10" height="10" rx="2.5" fill="#a5f3fc"/></g>
          <g id="w3"><rect x="0" y="0" width="10" height="10" rx="2.5" fill="#0e7490"/><rect x="0" y="14" width="10" height="10" rx="2.5" fill="#22d3ee"/><rect x="0" y="28" width="10" height="10" rx="2.5" fill="#1b2730"/><rect x="0" y="42" width="10" height="10" rx="2.5" fill="#0e7490"/><rect x="0" y="56" width="10" height="10" rx="2.5" fill="#22d3ee"/><rect x="0" y="70" width="10" height="10" rx="2.5" fill="#a5f3fc"/><rect x="0" y="84" width="10" height="10" rx="2.5" fill="#164e63"/></g>
        </defs>
        <use href="#w1" x="0"/><use href="#w2" x="14"/><use href="#w3" x="28"/><use href="#w1" x="42"/><use href="#w2" x="56"/><use href="#w3" x="70"/>
        <use href="#w2" x="98"/><use href="#w3" x="112"/><use href="#w1" x="126"/><use href="#w2" x="140"/>
        <use href="#w3" x="168"/><use href="#w1" x="182"/><use href="#w2" x="196"/><use href="#w3" x="210"/>
        <use href="#w1" x="238"/><use href="#w2" x="252"/><use href="#w3" x="266"/><use href="#w1" x="280"/>
        <use href="#w2" x="308"/><use href="#w3" x="322"/><use href="#w1" x="336"/><use href="#w2" x="350"/>
        <use href="#w3" x="378"/><use href="#w1" x="392"/><use href="#w2" x="406"/><use href="#w3" x="420"/>
        <use href="#w1" x="448"/><use href="#w2" x="462"/><use href="#w3" x="476"/><use href="#w1" x="490"/>
        <use href="#w2" x="518"/><use href="#w3" x="532"/><use href="#w1" x="546"/>
      </g>

      <g transform="translate(0 226)">
        <rect x="0" y="0" width="188" height="92" rx="16" fill="#17232a"/>
        <text x="18" y="30" font-family="Arial, sans-serif" font-size="13" fill="#9fb3bc">Today</text>
        <text x="18" y="62" font-family="Arial, sans-serif" font-size="28" font-weight="700" fill="#f2fbff">6 blocks</text>

        <rect x="212" y="0" width="188" height="92" rx="16" fill="#17232a"/>
        <text x="230" y="30" font-family="Arial, sans-serif" font-size="13" fill="#9fb3bc">Current streak</text>
        <text x="230" y="62" font-family="Arial, sans-serif" font-size="28" font-weight="700" fill="#f2fbff">12 days</text>

        <rect x="424" y="0" width="188" height="92" rx="16" fill="#17232a"/>
        <text x="442" y="30" font-family="Arial, sans-serif" font-size="13" fill="#9fb3bc">Target</text>
        <text x="442" y="62" font-family="Arial, sans-serif" font-size="28" font-weight="700" fill="#f2fbff">4/day</text>
      </g>

      <g transform="translate(0 350)" font-family="Arial, sans-serif" font-size="13" fill="#9fb3bc">
        <text x="0" y="0">Popup starts sessions and captures blocks. Dashboard explains the year.</text>
      </g>
    </g>
  </g>
</svg>
